<?xml version="1.0" encoding="UTF-8" standalone="no"?>
<!-- Created with Inkscape (http://www.inkscape.org/) -->

<svg
   width="207.1098mm"
   height="113.83709mm"
   viewBox="0 0 207.1098 113.83709"
   version="1.1"
   id="svg1"
   xml:space="preserve"
   xmlns:inkscape="http://www.inkscape.org/namespaces/inkscape"
   xmlns:sodipodi="http://sodipodi.sourceforge.net/DTD/sodipodi-0.dtd"
   xmlns="http://www.w3.org/2000/svg"
   xmlns:svg="http://www.w3.org/2000/svg"><sodipodi:namedview
     id="namedview1"
     pagecolor="#ffffff"
     bordercolor="#666666"
     borderopacity="1.0"
     inkscape:showpageshadow="2"
     inkscape:pageopacity="0.0"
     inkscape:pagecheckerboard="0"
     inkscape:deskcolor="#d1d1d1"
     inkscape:document-units="mm"><inkscape:page
       x="0"
       y="0"
       width="207.1098"
       height="113.83709"
       id="page2"
       margin="0"
       bleed="0" /></sodipodi:namedview><defs
     id="defs1" /><g
     inkscape:label="Layer 1"
     inkscape:groupmode="layer"
     id="layer1"
     transform="translate(-1.6848353,-169.88125)"><path
       style="fill:#000000"
       d="m 146.4644,282.69108 c 0.0916,-0.56498 0.24771,-1.38273 0.34689,-1.81722 0.1617,-0.70839 0.0583,-0.64007 -1.00129,0.66145 -1.17883,1.44801 -1.1855,1.45163 -2.8209,1.53021 -0.9016,0.0433 -1.63897,-0.0162 -1.63859,-0.13229 3.7e-4,-0.11608 0.41637,-0.90044 0.92445,-1.74302 0.50807,-0.84258 1.36349,-2.3904 1.90092,-3.43959 0.53743,-1.04919 1.23346,-2.2648 1.54673,-2.70137 0.62752,-0.87449 2.21035,-4.54357 2.85351,-6.61458 0.22596,-0.7276 0.54414,-2.39448 0.70706,-3.70417 0.16292,-1.30969 0.51883,-3.15515 0.79089,-4.10104 0.27207,-0.94588 0.62776,-2.43417 0.79042,-3.30729 0.16266,-0.87313 0.35102,-1.84803 0.41856,-2.16646 0.10896,-0.51365 -0.0191,-0.59989 -1.13489,-0.76449 -0.69174,-0.10205 -2.98411,-0.68762 -5.09417,-1.30127 -2.11005,-0.61366 -4.47422,-1.26682 -5.25372,-1.45148 l -1.41727,-0.33574 2.07873,-1.18772 c 5.93928,-3.39352 8.16808,-5.40792 9.93911,-8.98299 1.04412,-2.10771 1.14629,-2.22977 1.27034,-1.51763 0.0742,0.42595 0.25278,0.77155 0.39687,0.76802 0.40033,-0.01 1.92349,-3.22093 2.44426,-5.15295 0.33878,-1.25686 0.45967,-2.68126 0.4491,-5.29167 -0.0128,-3.16539 -0.0942,-3.7977 -0.71512,-5.55625 l -0.70066,-1.98437 0.64766,0.79375 c 0.81223,0.99545 0.81589,0.78641 0.0178,-1.01823 -0.91774,-2.07516 -2.2071,-3.99438 -4.25351,-6.33133 -1.76867,-2.01979 -2.60663,-2.58951 -1.47853,-1.00523 0.8029,1.12757 2.92414,5.66762 2.92892,6.26873 0.002,0.27421 0.29904,1.44855 0.65967,2.60966 1.28872,4.14922 1.46854,8.23686 0.50677,11.52024 -0.60585,2.06834 -0.90582,2.22124 -0.90582,0.46172 0,-0.82 -0.13451,-1.82608 -0.2989,-2.23573 -0.28435,-0.70858 -0.31535,-0.65468 -0.63692,1.10725 -0.18591,1.01865 -0.53086,2.38216 -0.76656,3.03002 -1.06521,2.92798 -3.72021,6.69706 -5.97605,8.48372 l -1.11581,0.88374 0.95753,-1.85031 c 0.52665,-1.01767 0.95754,-1.94256 0.95754,-2.05531 0,-0.11275 -0.45961,0.37124 -1.02137,1.07553 -1.78388,2.23652 -4.28102,4.3873 -8.63592,7.43805 -2.32834,1.63108 -4.76912,3.44506 -5.42396,4.03106 l -1.19063,1.06546 1.45521,-0.83488 c 0.80037,-0.45918 2.608,-1.40042 4.01696,-2.09164 l 2.56175,-1.25677 2.33304,0.8776 c 1.28318,0.48268 2.30831,0.94829 2.27808,1.03468 -0.16124,0.46085 -3.17395,6.0152 -3.84801,7.09436 -0.43311,0.6934 -1.38132,2.00309 -2.10712,2.91042 -2.31603,2.89527 -2.96883,4.42941 -4.03557,9.48383 -0.51625,2.44608 -0.94226,3.15946 -1.57376,2.63536 -0.23755,-0.19715 -0.46292,-0.31172 -0.50084,-0.2546 -0.0379,0.0571 -0.42648,0.93729 -0.86349,1.95593 -0.53764,1.25323 -1.0052,1.94962 -1.44602,2.15372 -0.35831,0.16589 -1.88711,0.38487 -3.39733,0.48662 l -2.74585,0.185 0.18168,-0.96844 c 0.0999,-0.53264 0.25003,-1.16834 0.33358,-1.41266 0.0835,-0.24433 -0.38075,0.12131 -1.03177,0.81253 -1.12111,1.19036 -1.2573,1.25678 -2.57697,1.25678 -1.19492,0 -1.36907,-0.0632 -1.22311,-0.44353 0.18353,-0.47827 2.69107,-4.57532 3.85787,-6.30335 2.17157,-3.21607 3.98509,-8.50625 4.35368,-12.7 l 0.18603,-2.11667 -1.47745,1.44617 -1.47746,1.44617 -0.003,-1.18158 c -0.005,-2.50111 -1.99287,-5.24739 -5.53954,-7.65481 -2.33552,-1.58532 -3.99979,-2.17874 -6.23183,-2.22207 -2.30479,-0.0447 -3.91077,0.53637 -5.85203,2.11755 -0.78321,0.63793 -1.42401,1.05382 -1.42401,0.92421 0,-0.12961 0.29967,-0.89022 0.66593,-1.69024 0.36627,-0.80003 1.02566,-2.86825 1.46532,-4.59604 0.43966,-1.72779 1.26299,-4.68925 1.82962,-6.58103 1.4463,-4.82866 2.21255,-7.8054 2.05082,-7.96712 -0.076,-0.076 -0.28064,0.29372 -0.45483,0.82154 -0.48525,1.4703 -3.4389,7.54246 -3.66884,7.54246 -0.3657,0 -2.15872,-3.27358 -2.60854,-4.7625 -0.24761,-0.8196 -0.44629,-2.40856 -0.45487,-3.63786 -0.008,-1.20046 -0.0412,-2.18273 -0.0729,-2.18282 -0.0317,-8e-5 -0.24638,0.32727 -0.47698,0.72745 -0.40118,0.69618 -0.41365,0.63049 -0.28881,-1.52135 0.14001,-2.41329 0.74611,-4.4499 2.40156,-8.0698 l 0.968,-2.11666 -0.15511,-3.09303 c -0.14487,-2.88881 -0.10238,-3.28184 0.64346,-5.95312 0.94218,-3.37447 0.9924,-4.82959 0.25813,-7.47931 -0.81708,-2.94855 -0.98708,-2.98602 -0.84058,-0.18529 0.14452,2.7629 -0.25593,4.93679 -0.9094,4.93679 -0.73317,0 -2.5851,-1.13854 -3.946977,-2.42655 -1.792642,-1.69541 -3.158466,-4.4371 -3.828864,-7.68588 -0.278662,-1.35041 -0.508222,-2.91635 -0.510134,-3.47987 -0.003,-0.88092 0.05217,-0.9784 0.393399,-0.69521 0.623935,0.51782 0.536241,-3.60377 -0.132292,-6.21771 -0.291041,-1.13796 -0.529166,-2.18255 -0.529166,-2.32132 0,-0.69359 5.686504,0.89553 8.547514,2.38864 2.09126,1.0914 5.04655,4.08435 6.56137,6.64501 l 0.94595,1.59905 0.83144,-0.71611 c 0.61409,-0.5289 1.00521,-1.26944 1.49618,-2.83276 0.3656,-1.16417 1.13298,-2.95011 1.70528,-3.96876 1.08813,-1.9368 2.84898,-4.14174 2.53553,-3.175 -0.41652,1.28461 -1.21342,4.96288 -1.12965,5.21417 0.0508,0.15229 0.41688,-0.55042 0.8136,-1.56159 1.52601,-3.88955 4.81638,-8.26781 8.08516,-10.75834 2.29931,-1.75188 2.60135,-1.83984 1.49331,-0.43486 -0.17215,0.21828 -0.58898,0.87312 -0.92629,1.45521 l -0.6133,1.05833 1.56185,-1.48584 c 2.42717,-2.30905 4.08062,-3.49163 6.89886,-4.93421 2.31724,-1.18613 6.1063,-2.59775 6.34151,-2.36254 0.0487,0.0487 -0.56374,0.6518 -1.36105,1.34015 -2.31274,1.99667 -2.28434,2.40348 0.0739,1.05799 4.11288,-2.34666 8.69876,-3.6632 13.8842,-3.98596 1.41883,-0.0883 2.57969,-0.10254 2.57969,-0.0316 0,0.0709 -1.0418,0.74861 -2.31511,1.50597 -1.2733,0.75736 -2.73182,1.73558 -3.24114,2.17382 l -0.92604,0.79681 1.4552,-0.21228 c 0.80037,-0.11676 3.36021,-0.20609 5.68855,-0.19851 3.76803,0.0123 4.52414,0.0934 6.87916,0.73848 3.05883,0.83781 5.94262,2.03516 8.69626,3.61068 2.10641,1.20519 3.86914,2.55447 2.94541,2.25456 -0.29104,-0.0945 -2.01745,-0.23223 -3.83646,-0.30608 l -3.30729,-0.13427 2.0018,0.89756 c 3.66562,1.6436 6.88941,3.84226 10.93827,7.46005 2.11148,1.88666 6.57254,6.78666 6.3664,6.9928 -0.0613,0.0613 -0.2631,-0.007 -0.44851,-0.15256 -0.18542,-0.14518 -1.0515,-0.58439 -1.92463,-0.97603 l -1.5875,-0.71207 2.52828,2.45968 c 1.39056,1.35282 3.36209,3.35264 4.38118,4.44404 1.01909,1.09141 3.17462,3.23454 4.79006,4.7625 5.18426,4.90353 7.1982,9.02737 8.41975,17.24064 0.68569,4.61031 0.42873,10.25545 -0.78692,17.28749 -1.53115,8.85711 -1.52444,10.77236 0.046,13.14613 l 0.72994,1.10328 0.0235,5.83988 c 0.0184,4.57318 0.12061,6.21291 0.47124,7.55967 0.83393,3.20302 1.11534,5.10776 0.77156,5.22235 -0.22332,0.0744 -0.26785,0.73018 -0.15661,2.30638 0.1805,2.55774 0.14322,2.60388 -2.34817,2.9059 -1.33585,0.16194 -1.53455,0.12341 -1.78594,-0.34632 -0.15557,-0.29069 -0.28286,-0.95307 -0.28286,-1.47196 0,-1.11743 -0.39667,-1.249 -0.65069,-0.21583 -0.37626,1.53033 -0.8403,1.91823 -2.29477,1.91823 h -1.34576 l 0.14471,-0.99219 c 0.0796,-0.5457 0.27966,-2.59953 0.4446,-4.56406 0.34116,-4.06365 0.10764,-6.49066 -0.9095,-9.45223 -1.28882,-3.7526 -1.94772,-4.87631 -4.22922,-7.21251 -2.38173,-2.43885 -3.45091,-3.96399 -5.14998,-7.3462 -0.6031,-1.20055 -1.21823,-2.18281 -1.36697,-2.18281 -0.14873,0 -0.83201,0.28452 -1.5184,0.63228 -1.46459,0.74202 -6.61618,2.96821 -8.0971,3.49904 l -1.02828,0.36859 0.16175,-1.18011 c 0.23767,-1.73401 -0.24596,-1.71066 -0.75385,0.0364 -0.941,3.23693 -3.3906,7.15764 -5.65811,9.05611 -0.72395,0.60612 -1.8811,1.96061 -2.57147,3.00997 -0.69036,1.04936 -1.82194,2.59003 -2.51461,3.42372 -2.43404,2.92958 -3.64563,5.77696 -4.47672,10.52085 -0.16553,0.94484 -0.4722,2.12772 -0.68149,2.62863 l -0.38054,0.91075 -0.43066,-0.61487 c -0.4249,-0.60661 -0.44071,-0.5851 -1.17963,1.6047 -0.41192,1.22076 -0.98446,2.41365 -1.27231,2.65087 -0.50398,0.41532 -1.17325,0.53469 -5.14668,0.91794 l -1.82548,0.17608 z m -17.36735,-31.04326 c 1.6279,-0.73907 3.32148,-2.42844 4.18108,-4.17067 1.00432,-2.03555 1.22981,-5.20603 0.51219,-7.20166 -0.46977,-1.30639 -2.10128,-3.72995 -2.62695,-3.90228 -0.16791,-0.055 -0.23357,0.84113 -0.17969,2.45261 0.0769,2.30126 0.0196,2.67279 -0.61146,3.96264 -0.40495,0.82769 -1.28555,1.95204 -2.10435,2.68683 -1.63743,1.46943 -1.86971,2.17382 -1.60059,4.85364 0.21107,2.10176 0.43623,2.22397 2.42977,1.31889 z m 51.38185,-11.65586 c 2.63563,-5.03066 3.35974,-9.32172 2.54699,-15.09338 -0.25522,-1.81234 -0.53916,-3.43559 -0.63098,-3.60722 -0.0918,-0.17163 -0.16819,1.49524 -0.1697,3.70417 -0.003,4.33947 -0.30541,6.28983 -1.75112,11.29226 -0.81112,2.80664 -1.82265,6.03883 -2.19426,7.01146 -0.46091,1.20636 0.93122,-0.88734 2.19907,-3.30729 z m -49.71125,-17.4625 c 1.51148,0 1.70938,-0.0701 2.53884,-0.89958 0.83566,-0.83566 0.89959,-1.01993 0.89959,-2.59308 v -1.69349 l 1.19413,-0.7548 c 0.65678,-0.41515 1.1516,-0.79735 1.09961,-0.84934 -0.19843,-0.19843 -2.34825,0.71695 -3.42719,1.45928 -0.62019,0.42671 -1.60552,1.29473 -2.18961,1.92894 -1.14388,1.24205 -3.29153,4.07042 -3.29153,4.33483 0,0.0889 0.3458,-0.0846 0.76845,-0.38558 0.57807,-0.41162 1.17456,-0.54718 2.40771,-0.54718 z m -20.24946,-0.0661 c -0.3064,-1.03857 -2.16301,-4.00518 -3.01152,-4.812 -0.84664,-0.80504 -1.09197,-0.66667 -0.41197,0.23236 0.22533,0.29792 0.38846,1.08848 0.38846,1.88255 0,1.60394 0.72303,2.76324 1.72338,2.76324 0.34465,0 0.70022,0.11906 0.79016,0.26458 0.31444,0.50878 0.69749,0.26585 0.52149,-0.33073 z m 38.44696,-14.80958 c 2.94174,-1.08299 5.08379,-3.49498 6.25698,-7.04547 0.76516,-2.31567 1.22214,-5.87548 1.01637,-7.91751 -0.11671,-1.15824 -0.21695,-1.37179 -0.58856,-1.25384 -0.40252,0.12775 -0.42699,-0.0257 -0.24157,-1.51442 0.11348,-0.91112 0.49386,-2.63421 0.8453,-3.82909 0.35144,-1.19488 0.57481,-2.23668 0.49639,-2.31511 -0.47248,-0.47247 -5.84908,0.32866 -9.18252,1.36822 -6.01466,1.87573 -9.81478,5.14191 -12.14634,10.43969 l -0.65992,1.49946 0.62065,0.40666 c 0.61007,0.39973 0.63803,0.37665 1.64063,-1.3544 1.30633,-2.25548 4.5042,-5.47482 6.7025,-6.74753 1.83413,-1.06187 2.71356,-1.30728 2.11947,-0.59144 -0.18292,0.22041 0.54664,-0.0161 1.62125,-0.52563 1.7162,-0.8137 5.77874,-2.07192 6.00516,-1.85988 0.0454,0.0425 -0.10342,0.97773 -0.33073,2.07822 -0.22732,1.1005 -0.40951,2.98819 -0.40489,4.19487 0.007,1.88129 0.0585,2.12798 0.3599,1.73094 0.55827,-0.73543 0.69029,-0.55725 0.68611,0.92605 -0.0135,4.78046 -2.9013,9.81045 -6.9414,12.0904 -0.83674,0.47221 -1.52135,0.90812 -1.52135,0.96871 0,0.2214 2.28644,-0.24817 3.64657,-0.7489 z m 18.31384,69.61589 c 0,-0.059 0.11075,-0.49336 0.24612,-0.96534 0.30515,-1.064 0.16836,-1.07689 -0.68359,-0.0644 -0.55623,0.66104 -0.86303,0.79375 -1.835,0.79375 -0.64191,0 -1.16711,-0.0988 -1.16711,-0.21946 0,-0.12071 0.79245,-1.63875 1.761,-3.37344 2.71051,-4.85456 3.85667,-8.4828 3.84189,-12.16181 -0.006,-1.55843 0.0309,-1.64333 1.4472,-3.30729 0.79949,-0.93929 1.90831,-2.46217 2.46403,-3.38419 0.82965,-1.37649 1.24539,-1.78526 2.32396,-2.28497 2.41976,-1.12109 2.36374,-1.13121 2.56288,0.46272 0.097,0.7765 0.46837,2.04201 0.82522,2.81224 0.35685,0.77022 0.64882,1.7293 0.64882,2.13129 0,0.40198 -0.70655,2.22577 -1.5701,4.05287 -1.81375,3.83747 -2.51569,5.94705 -2.90128,8.71931 -0.34375,2.47152 -0.68547,3.41286 -1.17122,3.22645 -0.25647,-0.0984 -0.54714,0.33818 -0.95982,1.44167 -0.32557,0.87056 -0.78891,1.65853 -1.02965,1.75105 -0.51284,0.19709 -4.80335,0.52718 -4.80335,0.36955 z m -87.52507,-0.5259 c 0.07698,-0.20435 0.224809,-0.66921 0.328519,-1.03301 0.172982,-0.6068 0.13067,-0.5904 -0.512035,0.19844 -0.601878,0.73873 -0.868204,0.85989 -1.890063,0.85989 h -1.189465 l 0.498582,-0.7276 c 2.194339,-3.2023 4.558809,-8.28973 4.569128,-9.831 0.0025,-0.3774 0.189557,-1.51962 0.415623,-2.53827 0.226066,-1.01865 0.492361,-2.4474 0.591768,-3.175 l 0.180739,-1.32292 -2.911466,-0.75306 c -4.607276,-1.19168 -4.036163,-1.29473 -5.692665,1.02712 -0.798674,1.11946 -1.703165,2.40873 -2.00998,2.86504 -0.306814,0.45631 -1.407434,1.73903 -2.44582,2.8505 -1.809062,1.93638 -3.199455,4.26467 -3.217269,5.38749 -0.0046,0.29104 -0.250082,1.06198 -0.545477,1.71319 -0.430051,0.94808 -0.591088,1.10626 -0.808083,0.79375 -0.152042,-0.21896 -0.322254,-0.27414 -0.387763,-0.12569 -0.581199,1.31698 -1.407446,2.38763 -1.961608,2.54185 -0.362707,0.10094 -1.400662,0.19539 -2.306565,0.2099 l -1.647097,0.0264 0.261554,-0.68794 0.261554,-0.68794 -0.81757,0.68794 c -0.89787,0.75551 -2.534032,0.98228 -2.278267,0.31577 0.07855,-0.2047 0.915256,-1.49566 1.859348,-2.86881 0.944091,-1.37315 2.130805,-3.31903 2.637141,-4.32418 0.857415,-1.70209 1.167734,-2.69179 2.675619,-8.53333 0.313456,-1.21433 0.743333,-2.30206 0.955284,-2.41719 0.21195,-0.11514 1.873646,-0.71392 3.692656,-1.33063 5.531054,-1.87523 8.303768,-3.594 9.531623,-5.90853 0.49323,-0.92974 0.765114,-1.19133 1.12087,-1.07842 0.37305,0.1184 0.645608,-0.22236 1.324742,-1.65623 0.809463,-1.70904 0.855057,-1.96755 0.855057,-4.84801 0,-3.2624 -0.207885,-4.01 -1.829242,-6.5784 -0.913793,-1.44754 -1.120619,-1.28544 -0.409898,0.32127 0.856429,1.93609 1.376596,5.06413 1.193538,7.17735 -0.285652,3.29759 -1.188298,5.21503 -1.217142,2.58551 l -0.01379,-1.25677 -0.616601,1.65982 c -0.33913,0.9129 -0.925351,2.12638 -1.302714,2.69661 -0.831954,1.25717 -2.781145,3.15803 -3.940709,3.843 l -0.850137,0.50219 0.855325,-1.03766 c 1.04496,-1.26771 1.123265,-1.79662 0.12772,-0.86267 -1.02219,0.95895 -3.219068,2.31098 -6.124715,3.76935 -1.367682,0.68646 -4.273361,2.43083 -6.457064,3.87639 -2.70801,1.79263 -4.123794,2.57958 -4.452919,2.47512 -0.340658,-0.10812 -0.826281,0.20053 -1.651537,1.04965 -1.36429,1.40375 -2.109384,1.73966 -3.858849,1.73966 -2.309637,0 -4.576786,-0.90447 -6.325597,-2.52356 -1.488797,-1.37836 -2.416299,-2.77672 -2.416299,-3.64296 0,-0.2189 0.433982,-0.91528 0.964404,-1.54751 0.530422,-0.63223 1.129426,-1.54148 1.331119,-2.02054 0.342013,-0.81236 0.312695,-0.98422 -0.435237,-2.55137 -0.874262,-1.83185 -1.022682,-3.51567 -0.45629,-5.17656 0.387069,-1.13505 0.707686,-1.17411 1.08594,-0.1323 0.381988,1.0521 1.154608,2.16947 1.624892,2.34993 0.580571,0.22279 1.176839,-1.20114 1.176839,-2.81036 0,-1.82157 0.584752,-4.03716 1.741914,-6.60002 0.85819,-1.9007 0.920821,-2.21977 0.884105,-4.50404 -0.03704,-2.30459 0.03657,-2.66951 1.176325,-5.83186 0.668712,-1.85539 1.108628,-3.37344 0.97759,-3.37344 -0.131038,0 -0.442868,0.53578 -0.692955,1.19063 -0.250087,0.65484 -0.499738,1.19062 -0.554779,1.19062 -0.378103,0 -1.768358,-1.96997 -2.240675,-3.175 -0.497493,-1.26926 -0.580287,-2.07925 -0.647942,-6.33893 -0.04266,-2.68605 -0.02046,-4.97613 0.04935,-5.08907 0.0698,-0.11294 0.699858,0.23927 1.400126,0.78268 0.700268,0.54342 1.820212,1.30933 2.488764,1.70203 1.346558,0.79096 3.119911,3.1841 3.184254,4.29716 0.08002,1.38427 0.846109,0.49695 2.108615,-2.44231 1.026724,-2.39033 2.740674,-4.95061 4.287958,-6.40531 0.848262,-0.7975 0.938576,-0.83423 0.650667,-0.26458 -0.186809,0.36961 0.390182,-0.0756 1.307746,-1.00918 0.903132,-0.91885 2.460344,-2.19999 3.460472,-2.84697 1.937744,-1.25352 4.23097,-2.3424 4.23097,-2.00898 0,0.11082 -0.47625,0.66653 -1.058333,1.23492 -1.275809,1.24579 -1.392667,1.73715 -0.196083,0.82447 2.244699,-1.71212 6.869543,-3.34127 10.514833,-3.70396 1.96347,-0.19535 1.974986,-0.21364 -1.046524,1.66154 -1.030947,0.63981 -1.840967,1.19678 -1.800044,1.2377 0.04092,0.0409 0.906501,-0.10557 1.923508,-0.32554 2.936947,-0.63524 7.060976,-0.3654 10.113916,0.66176 1.34419,0.45225 3.070596,1.15249 3.836459,1.55607 l 1.392477,0.73379 -2.513542,0.13575 c -1.924685,0.10395 -2.327587,0.18562 -1.719791,0.34861 3.108111,0.83348 6.449188,2.36623 8.863542,4.06622 l 1.455206,1.02464 0.27668,2.30278 0.27669,2.30278 -1.138555,2.48177 c -1.511276,3.29423 -2.192938,6.04588 -2.192938,8.8522 0,2.00451 -0.07337,2.344 -0.677857,3.13652 -1.381229,1.81089 -2.037918,3.71368 -2.168006,6.28193 -0.197375,3.89663 0.948992,7.21566 3.587138,10.38572 l 1.28633,1.54568 -0.881511,1.84578 c -0.484831,1.01518 -0.881511,2.23051 -0.881511,2.70074 0,0.76583 -0.103422,0.88176 -0.992187,1.11213 -0.545703,0.14145 -1.282193,0.29487 -1.636643,0.34093 -0.451441,0.0587 -0.876512,0.47995 -1.419275,1.40666 -0.426152,0.7276 -1.177944,1.76974 -1.67065,2.31587 -0.492705,0.54612 -0.895828,1.10378 -0.895828,1.23924 0,0.13547 -0.60629,0.99833 -1.34731,1.91747 -1.778737,2.2063 -2.579424,3.83187 -3.018998,6.12923 -0.486089,2.54045 -0.628701,2.86382 -1.185112,2.68722 -0.36538,-0.11596 -0.531273,0.10208 -0.795394,1.04542 -0.183549,0.65558 -0.493119,1.32424 -0.687933,1.48592 -0.194814,0.16168 -1.330855,0.36091 -2.524536,0.44272 -1.795759,0.12309 -2.146174,0.0846 -2.030373,-0.22279 z M 50.333158,261.43001 c 0,-0.31538 -0.321641,-0.6887 -0.811686,-0.94212 -1.13919,-0.58909 -1.386816,-0.39658 -0.777641,0.60459 0.596044,0.97959 1.589327,1.19053 1.589327,0.33753 z m -4.233333,-0.25663 c 0,-0.49373 -1.236943,-1.68662 -1.548954,-1.49378 -0.226116,0.13974 -0.15986,0.40792 0.239264,0.96844 0.526952,0.74003 1.30969,1.054 1.30969,0.52534 z m 7.084404,-1.13923 c -0.402058,-1.16642 -2.999277,-3.66526 -4.583594,-4.40998 -1.522895,-0.71584 -3.263543,-0.66453 -4.484059,0.13218 l -0.77744,0.50749 1.843365,0.14885 c 2.289984,0.18492 4.914651,1.41644 6.850881,3.2145 0.738367,0.68567 1.366057,1.25122 1.394867,1.25677 0.02881,0.006 -0.081,-0.37687 -0.24402,-0.84981 z m 5.778976,-3.6152 c 1.982494,-0.90029 2.778278,-2.83855 2.109674,-5.13847 -0.367532,-1.26427 -2.012947,-3.6156 -2.530121,-3.6156 -0.118708,0 -0.09555,0.47386 0.05145,1.05303 0.394909,1.55582 0.04408,3.30911 -0.870606,4.35087 -0.7841,0.89304 -0.91144,1.52499 -0.6105,3.02969 0.191669,0.95834 0.375389,0.99017 1.850099,0.32048 z m -13.65328,-5.58627 c 0.241763,-0.45173 0.152602,-0.67081 -0.565125,-1.38853 l -0.852176,-0.85218 0.164755,1.01527 c 0.142118,0.87577 0.582122,1.7618 0.874909,1.7618 0.04982,0 0.219759,-0.24136 0.377637,-0.53636 z m 17.982449,-12.6928 c 1.425431,0 2.386618,-0.89817 2.386618,-2.23014 0,-0.77336 0.13876,-1.00303 0.818338,-1.35445 1.165256,-0.60258 0.813387,-0.72185 -0.654262,-0.22177 -0.876415,0.29862 -1.757295,0.93918 -2.955285,2.14902 -1.710188,1.7271 -2.154117,2.44457 -1.194935,1.93123 0.281475,-0.15064 1.001262,-0.27389 1.599526,-0.27389 z m 15.748077,-8.98264 c 1.484464,-0.807 2.850996,-2.57938 3.344042,-4.33719 0.501464,-1.78783 0.697109,-5.20101 0.298124,-5.20101 -0.463498,0 -0.420699,-0.62697 0.194292,-2.84624 0.291042,-1.05026 0.529167,-1.9706 0.529167,-2.0452 0,-0.32579 -2.736326,-0.0908 -4.654031,0.39958 -2.954477,0.75558 -5.178685,1.87121 -6.813993,3.41782 -1.74344,1.64887 -3.012683,3.82973 -2.551959,4.38487 0.259303,0.31244 0.508977,0.11717 1.452543,-1.13604 1.834347,-2.43631 3.45188,-3.50114 6.957742,-4.58031 3.406616,-1.04862 3.474523,-1.0411 3.204444,0.355 -0.33593,1.73649 -0.299478,3.70565 0.06443,3.48074 0.485953,-0.30033 0.104572,2.79588 -0.517652,4.20252 -0.66783,1.50974 -2.490148,3.511 -3.810364,4.18452 -0.552244,0.28174 -1.00408,0.56187 -1.00408,0.62253 0,0.31293 2.152684,-0.27391 3.307292,-0.90159 z m 22.282159,44.67021 c 0.15311,-0.60998 0.14129,-0.61537 -0.36718,-0.16726 -0.44645,0.39345 -2.203521,0.67744 -2.203521,0.35615 0,-0.0588 0.437787,-0.86246 0.972859,-1.78594 1.721202,-2.97064 2.163752,-3.92605 2.486432,-5.36794 l 0.31633,-1.41353 1.19326,0.75674 c 0.6563,0.41621 1.77131,0.94875 2.47782,1.18341 0.7065,0.23466 1.28183,0.50639 1.27851,0.60383 -0.003,0.0975 -0.22172,1.01061 -0.48533,2.02926 -0.35245,1.36199 -0.58694,1.83357 -0.88616,1.78211 -0.25875,-0.0445 -0.46138,0.1963 -0.55658,0.66146 -0.28181,1.37693 -0.74003,1.69944 -2.6301,1.85116 -1.74366,0.13996 -1.75356,0.13693 -1.59634,-0.48945 z m 83.82957,-0.74023 c -0.36529,-0.59105 -0.0428,-3.72217 0.57464,-5.57859 0.43411,-1.3053 0.75977,-3.13871 0.95162,-5.35752 0.23505,-2.71848 0.39722,-3.50552 0.83556,-4.05525 l 0.54389,-0.68211 1.25286,1.01254 c 0.98339,0.79477 1.40458,1.39822 1.95832,2.80573 l 0.70546,1.79319 -0.54669,0.98494 c -0.9266,1.6694 -1.43268,3.51393 -1.75841,6.40889 -0.28252,2.51094 -0.36652,2.78592 -0.87346,2.85914 -0.4144,0.0599 -0.62535,-0.11237 -0.8077,-0.65943 l -0.24681,-0.74043 -0.18211,0.72557 c -0.15981,0.63675 -0.30913,0.72557 -1.21978,0.72557 -0.57072,0 -1.10505,-0.10901 -1.18739,-0.24224 z M 17.164125,272.06508 c -0.08571,-0.13868 -0.482386,-0.18973 -0.881501,-0.11343 l -0.725664,0.13872 0.489779,-0.76952 c 0.269379,-0.42323 0.754501,-1.1267 1.078049,-1.56326 0.914351,-1.23373 1.58004,-2.7232 2.246768,-5.02709 0.450062,-1.55519 0.883258,-2.4252 1.633092,-3.27979 0.577895,-0.65863 1.192153,-1.74099 1.416194,-2.49541 0.613308,-2.06524 0.446814,-2.32384 -0.370062,-0.5748 -0.858898,1.83902 -3.077994,4.0749 -4.831593,4.86812 -0.632264,0.286 -1.923477,0.86861 -2.869363,1.29468 -0.945885,0.42608 -2.421027,1.32386 -3.278094,1.99508 -0.857066,0.67121 -1.6710258,1.15072 -1.8087989,1.06557 -0.1377731,-0.0851 -0.6474326,0.22991 -1.1325767,0.70014 -0.8742446,0.84735 -0.8938665,0.85211 -2.2089228,0.53664 -1.6675457,-0.40004 -4.1015049,-1.83486 -4.228154,-2.49249 -0.057141,-0.29671 0.1798772,-0.72392 0.5868464,-1.05774 0.5054568,-0.41461 1.0028247,-1.52169 1.9157267,-4.26416 1.1237612,-3.37593 1.2303751,-3.91518 1.20313,-6.08542 -0.020493,-1.63238 0.1218825,-2.87117 0.4527207,-3.93907 0.4818661,-1.55539 0.4816906,-1.5595 -0.113163,-2.64583 C 5.2747256,247.509 5.1015551,246.6328 4.9567315,244.40026 l -0.1860291,-2.86775 1.1053782,0.61879 c 0.607958,0.34033 1.5683212,1.07496 2.1341404,1.63251 0.5930505,0.58439 1.157952,0.93389 1.3337935,0.82521 0.1677672,-0.10369 0.7061515,-1.06872 1.1964085,-2.14452 1.052069,-2.30861 2.976162,-5.22659 4.733921,-7.1792 1.286818,-1.42948 1.756399,-1.64616 1.173523,-0.54152 -0.179345,0.33988 0.614681,-0.27608 1.764501,-1.36881 1.459731,-1.38726 2.704419,-2.28546 4.124786,-2.97657 1.118813,-0.54437 2.190375,-0.98945 2.38125,-0.98906 0.190875,3.9e-4 -0.188736,0.48334 -0.843579,1.07321 -1.336642,1.20402 -1.258273,1.22109 0.752974,0.16402 1.963117,-1.03178 5.051141,-1.77118 7.292995,-1.74624 l 1.875906,0.0209 -1.268204,0.60792 c -0.697512,0.33436 -1.314578,0.6543 -1.371257,0.71098 -0.05668,0.0567 0.778382,0.0585 1.855691,0.004 2.317303,-0.11702 4.799102,0.27321 7.530645,1.18409 2.393998,0.79831 2.851255,1.15325 1.288808,1.0004 -1.367952,-0.13382 -1.39564,-0.15044 2.150775,1.2909 l 2.778125,1.1291 0.07923,1.214 c 0.05954,0.91233 -0.151907,1.77236 -0.850899,3.46095 -0.511568,1.23582 -1.008921,2.73971 -1.105229,3.34198 -0.197457,1.23484 -0.281796,1.27409 -1.381463,0.64297 -1.00005,-0.57395 -1.350018,-0.31626 -2.357954,1.7362 -0.625265,1.27324 -0.730518,1.80678 -0.712274,3.61067 0.01513,1.49589 0.1868,2.53598 0.585342,3.54639 l 0.563936,1.42972 -0.78753,0.99434 c -1.218587,1.53859 -1.640098,2.77194 -1.44131,4.2173 0.17044,1.23926 0.165933,1.24872 -0.674973,1.4169 -0.465608,0.0931 -1.284506,0.16931 -1.819773,0.16931 -0.966127,0 -0.979373,0.0151 -1.819011,2.06865 -0.465188,1.13776 -0.845796,2.42095 -0.845796,2.85155 0,0.85466 0.567372,1.82044 1.511851,2.57348 0.607526,0.48439 0.836528,1.50215 0.33799,1.50215 -0.165423,0 -0.150714,0.18593 0.03871,0.48924 0.478103,0.76556 0.07887,1.89201 -0.670566,1.89201 -0.343212,0 -0.773336,-0.17991 -0.955833,-0.3998 -0.294478,-0.35483 -0.368243,-0.34999 -0.655594,0.043 -0.525147,0.71818 -1.10852,0.22878 -1.456537,-1.22192 -0.215289,-0.89743 -0.727792,-1.84922 -1.518198,-2.81953 -1.10439,-1.35575 -1.210658,-1.62084 -1.42779,-3.5616 -0.129025,-1.15326 -0.399914,-2.57668 -0.601974,-3.16316 -0.335223,-0.973 -1.513192,-2.95611 -1.665473,-2.80383 -0.0351,0.0351 0.224961,0.77199 0.577912,1.63753 l 0.641728,1.57371 -0.633817,0.13229 c -0.354652,0.074 -1.011107,0.6567 -1.490418,1.32292 -0.47113,0.65484 -1.644961,2.10316 -2.608513,3.21848 -1.139002,1.31841 -1.895039,2.47548 -2.161018,3.3073 -0.225008,0.70368 -0.544127,1.25053 -0.709152,1.21521 -0.165026,-0.0353 -0.484306,0.29211 -0.709512,0.72761 -0.267107,0.51653 -0.614073,0.79307 -0.997983,0.79543 -0.323685,0.002 -0.842971,0.0719 -1.15397,0.15534 -0.310998,0.0834 -0.635579,0.0383 -0.721289,-0.10042 z M 6.3962753,266.56325 c -0.4680737,-0.564 -2.2191649,-1.43587 -2.8838272,-1.43587 -0.6563728,0 -0.7299575,0.52275 -0.076686,0.54478 0.2546615,0.009 0.9988021,0.29358 1.6536459,0.63332 1.43652,0.74528 1.7652796,0.81012 1.3068673,0.25777 z m 4.0301117,-1.60917 c 0.663611,-0.60056 0.606606,-1.3753 -0.187143,-2.54341 -0.8588337,-1.26389 -1.1661651,-1.25163 -0.9929739,0.0396 0.075767,0.56489 0.015002,1.24642 -0.1350339,1.51452 -0.302936,0.54132 0.026477,1.42716 0.5307095,1.42716 0.1653227,0 0.5183213,-0.19705 0.7844413,-0.43788 z m 1.418394,-9.20591 c 0.678109,-0.28333 0.917543,-0.5457 0.917543,-1.00542 0,-0.34212 0.142875,-0.76491 0.3175,-0.93954 0.506705,-0.5067 -0.03347,-0.36738 -0.861445,0.22219 -0.896719,0.63852 -1.999271,2.10614 -1.58224,2.10614 0.160104,0 0.703993,-0.17251 1.208642,-0.38337 z m 7.494165,-6.37216 c 1.057044,-0.88944 1.472115,-2.21299 1.230831,-3.92479 -0.105296,-0.74702 -0.225792,-1.95353 -0.267771,-2.68114 -0.09019,-1.56322 -0.23238,-1.58105 -2.598583,-0.32582 -2.455099,1.30238 -3.74401,3.30914 -3.208701,4.99575 0.169755,0.53485 0.237091,0.44974 0.5173,-0.65383 0.374558,-1.47516 1.547758,-2.81313 3.06768,-3.49852 0.57091,-0.25745 1.088898,-0.4172 1.151085,-0.35502 0.220699,0.2207 0.476885,4.16795 0.312912,4.82127 -0.09165,0.36516 -0.474912,1.0303 -0.851692,1.47807 -0.828783,0.98496 -0.452106,1.06882 0.646939,0.14403 z m 25.063371,22.13742 c -0.07807,-0.12632 -0.442444,-0.17223 -0.809719,-0.10202 -0.367275,0.0702 -0.667773,0.0485 -0.667773,-0.0482 0,-0.0967 0.437175,-0.85473 0.971499,-1.68449 0.534325,-0.82975 1.177228,-2.04443 1.428674,-2.69927 0.251446,-0.65484 0.49888,-1.17167 0.549855,-1.14851 0.05097,0.0232 0.840154,0.1965 1.753733,0.38519 1.329607,0.27463 1.625529,0.42461 1.483026,0.75164 -0.09792,0.22471 -0.369138,0.95055 -0.602719,1.61299 -0.233581,0.66245 -0.577582,1.37682 -0.764446,1.5875 -0.186864,0.21069 -0.48452,0.57728 -0.661458,0.81466 -0.356076,0.4777 -2.456415,0.89336 -2.680672,0.5305 z m 64.903723,-6.35638 c -3.05384,-0.66884 -4.04388,-1.18293 -5.95164,-3.09048 -1.85284,-1.85264 -2.6494,-3.52492 -2.37521,-4.98647 0.45858,-2.44447 5.48249,-4.35359 9.54668,-3.62782 2.43001,0.43394 6.83143,2.74356 8.61497,4.52065 2.29222,2.28393 2.68165,4.49749 1.07407,6.10507 -0.98944,0.98944 -2.26454,1.31432 -5.72029,1.45746 -2.22553,0.0922 -3.44653,0.003 -5.18858,-0.37841 z m 6.48985,-3.36527 c 0.60811,-0.23335 0.51253,-1.24881 -0.17679,-1.87829 -0.65484,-0.59799 -2.47782,-1.32618 -2.71821,-1.08579 -0.29641,0.29641 0.2085,1.55613 0.93575,2.33465 0.73838,0.79044 1.17452,0.93056 1.95925,0.62943 z m -7.82689,-0.71324 c 0.20812,-0.25077 0.17937,-0.55029 -0.10553,-1.09942 -0.69994,-1.34914 -1.84311,-1.85732 -2.4724,-1.09906 -0.42013,0.50622 0.13057,1.67096 1.01834,2.15381 0.85761,0.46646 1.20137,0.4763 1.55959,0.0447 z m -7.02659,-11.909 c -3.069101,-3.32958 -4.035648,-7.82607 -2.466388,-11.47391 0.324172,-0.75356 0.814036,-1.5734 1.088587,-1.82186 0.569151,-0.51507 0.523021,-0.5954 1.065291,1.85515 0.40249,1.81888 1.60905,3.72378 2.75222,4.34514 0.43656,0.23729 0.84477,0.46262 0.90712,0.50072 0.0624,0.0381 -0.13304,0.87154 -0.43421,1.85208 -0.30117,0.98054 -0.7493,2.70554 -0.99583,3.83333 -0.24654,1.12779 -0.542,2.05052 -0.65657,2.05052 -0.11458,0 -0.68168,-0.51353 -1.26022,-1.14117 z m 101.68464,-33.68579 c -0.45936,-1.11683 -0.46578,-1.24372 -0.074,-1.46298 0.23596,-0.13205 0.55095,-0.69295 0.7,-1.24646 0.32593,-1.21043 -0.18326,-3.21903 -1.19338,-4.70753 -0.5158,-0.76008 -0.64944,-1.29262 -0.64944,-2.58807 0,-1.37495 0.13061,-1.83655 0.83174,-2.93964 0.68592,-1.07916 0.86205,-1.2229 1.00465,-0.8199 0.15088,0.4264 0.21453,0.43852 0.49951,0.0951 0.45919,-0.5533 2.61217,-1.41696 3.94796,-1.58371 1.18242,-0.14761 1.40142,0.0438 0.70826,0.61907 -0.37399,0.31038 -1.43587,2.14343 -1.43587,2.47864 0,0.074 0.15943,0.0734 0.35428,-0.001 0.29436,-0.11295 0.29253,0.1643 -0.0108,1.63946 -0.45329,2.20419 -0.9967,3.14863 -2.11776,3.68061 -1.00216,0.47556 -1.00295,0.47885 -0.47464,1.97624 0.46885,1.32888 0.51881,3.5022 0.0992,4.31687 -0.33731,0.65494 -1.30447,1.76905 -1.53441,1.76755 -0.0838,-5.4e-4 -0.37866,-0.55129 -0.6553,-1.22388 z"
       id="path1" /></g></svg>
